# xmcd
#
# Track frame offsets: 
#        150
#        11735
#        23455
#        37207
#        50095
#        60900
#        71760
#        82577
#        93552
#        102967
#        112505
#        123807
#        132775
#        142132
#        155872
#        164600
#        177592
#        186210
#        199860
#        209032
#        223055
#        232390
#        244722
#        257155
#        268452
#
# Disc length: 3740 seconds
#
# Revision: 3
# Processed by: cddbd v1.5.2PL0 Copyright (c) Steve Scherf et al.
# Submitted via: ExactAudioCopy v1.1
#
DISCID=7d0e9a19
DTITLE=The Maddox Brothers and Rose - The Most Colorful Hillbilly Band I
DTITLE=n America - Disc 4
DYEAR=1998
DGENRE=Country
TTITLE0=Rose Maddox - Take A Gamble On Me
TTITLE1=Rose Maddox - Tomorrow Land
TTITLE2=Rose Maddox - Old Man Blues
TTITLE3=Rose Maddox - 1-2-3-4 Anyplace Road (Somewhere U.S.A.)
TTITLE4=Love Is Strange
TTITLE5=A Short Life And Its Troubles
TTITLE6=My Life With You
TTITLE7=Dig A Hole
TTITLE8=Let Me Love You
TTITLE9=Rose Maddox - The Donkey Song
TTITLE10=Stop Whistlin' Wolf
TTITLE11=The Way With God Is So Beautiful
TTITLE12=Rose Maddox - Keep On Talking (Tell Him Everything) (alt)
TTITLE13=Rose Maddox - Precious Memories
TTITLE14=Rose Maddox - I Saw The Light
TTITLE15=Rose Maddox - Someone To Care
TTITLE16=Rose Maddox - Dear Lord Take My Hand
TTITLE17=Rose Maddox - He Leadeth Me
TTITLE18=Rose Maddox - Keep On Talking (Tell Him Everything)(2)
TTITLE19=Rose Maddox - How Can You Refuse Him Now
TTITLE20=Rose Maddox - No One Knows (What Faith Can Do)
TTITLE21=Rose Maddox - Take My Hand, Precious Lord
TTITLE22=Rose Maddox - Swing Low, Sweet Chariot
TTITLE23=Rose Maddox - Just Over The Stars
TTITLE24=Rose Maddox - Bringing In The Sheaves
EXTD=
EXTT0=
EXTT1=
EXTT2=
EXTT3=
EXTT4=
EXTT5=
EXTT6=
EXTT7=
EXTT8=
EXTT9=
EXTT10=
EXTT11=
EXTT12=
EXTT13=
EXTT14=
EXTT15=
EXTT16=
EXTT17=
EXTT18=
EXTT19=
EXTT20=
EXTT21=
EXTT22=
EXTT23=
EXTT24=
PLAYORDER=
